<?xml version="1.0" standalone="no"?>
<!DOCTYPE svg PUBLIC "-//W3C//DTD SVG 20010904//EN"
 "http://www.w3.org/TR/2001/REC-SVG-20010904/DTD/svg10.dtd">
<svg version="1.0" xmlns="http://www.w3.org/2000/svg"
 width="226.000000pt" height="226.000000pt" viewBox="0 0 226.000000 226.000000"
 preserveAspectRatio="xMidYMid meet">
<metadata>
Created by potrace 1.14, written by Peter Selinger 2001-2017
</metadata>
<g transform="translate(0.000000,226.000000) scale(0.100000,-0.100000)"
fill="#000000" stroke="none">
<path d="M1050 1951 c-152 -28 -301 -99 -411 -196 -108 -96 -220 -265 -243
-370 -4 -16 -12 -50 -17 -75 -52 -235 30 -517 204 -707 168 -181 444 -284 679
-253 328 43 586 256 686 566 18 57 33 147 37 233 2 44 -12 155 -26 211 -66
265 -303 499 -579 571 -84 21 -261 32 -330 20z m295 -72 c83 -19 211 -76 270
-122 55 -43 162 -150 189 -189 82 -123 116 -242 117 -409 0 -102 -17 -225 -32
-235 -5 -3 -9 -13 -9 -24 0 -46 -102 -201 -190 -289 -45 -44 -140 -111 -160
-111 -5 0 -10 -4 -10 -10 0 -5 -9 -10 -20 -10 -11 0 -20 -3 -20 -7 0 -10 -96
-39 -178 -54 -69 -13 -266 -7 -317 10 -104 34 -207 85 -274 136 -34 26 -142
141 -147 157 -3 10 -9 18 -13 18 -8 0 -48 75 -81 155 -34 82 -50 235 -36 360
11 100 22 139 69 235 34 71 56 101 136 180 103 102 179 150 302 190 116 37
287 45 404 19z"/>
<path d="M740 1510 c0 -13 58 -65 118 -106 31 -21 59 -41 62 -44 13 -14 60
-30 100 -35 25 -3 56 -8 70 -10 14 -2 48 -7 75 -10 28 -3 82 -11 120 -16 39
-6 86 -12 105 -15 19 -2 47 -6 62 -9 70 -16 1 66 -72 85 -25 6 -54 15 -65 20
-11 5 -31 11 -45 14 -14 2 -111 27 -215 55 -253 67 -315 81 -315 71z"/>
<path d="M894 1285 c-4 -8 -4 -21 -1 -27 6 -17 224 -141 235 -134 4 2 93 8
197 11 105 4 193 12 196 17 3 5 10 9 15 9 8 -1 9 4 6 29 -2 10 -54 26 -117 34
-82 12 -342 47 -385 53 -25 3 -53 9 -62 14 -27 14 -78 11 -84 -6z"/>
<path d="M1072 1088 c5 -16 65 -46 136 -68 48 -15 62 -15 125 -4 182 34 242
50 242 64 0 16 -82 18 -328 8 -65 -2 -120 -1 -123 4 -9 13 -56 9 -52 -4z"/>
<path d="M1554 1042 c-7 -4 -14 -47 -17 -103 -2 -53 -7 -101 -10 -106 -3 -5
-2 -15 3 -23 6 -10 15 -6 38 20 17 18 33 45 37 59 4 14 12 29 18 33 12 7 19
68 8 68 -4 0 -15 14 -24 30 -18 30 -32 36 -53 22z"/>
<path d="M1454 1020 c-13 -5 -27 -26 -36 -57 -23 -70 -31 -123 -19 -123 24 0
78 61 95 109 26 72 14 93 -40 71z"/>
<path d="M1347 989 c-19 -11 -62 -88 -53 -96 19 -19 106 60 106 97 0 13 -30
12 -53 -1z"/>
</g>
</svg>
